<?xml version="1.0" standalone="no"?>
<!DOCTYPE svg PUBLIC "-//W3C//DTD SVG 20010904//EN"
 "http://www.w3.org/TR/2001/REC-SVG-20010904/DTD/svg10.dtd">
<svg version="1.0" xmlns="http://www.w3.org/2000/svg"
 width="300.000000pt" height="169.000000pt" viewBox="0 0 300.000000 169.000000"
 preserveAspectRatio="xMidYMid meet">
<metadata>
Created by potrace 1.10, written by Peter Selinger 2001-2011
</metadata>
<g transform="translate(0.000000,169.000000) scale(0.100000,-0.100000)"
fill="#000000" stroke="none">
<path d="M1933 1425 c-12 -5 -25 -21 -28 -35 -4 -13 -11 -31 -17 -37 -13 -16
-50 -17 -66 -1 -6 6 -15 8 -19 4 -5 -5 2 -15 15 -23 12 -9 22 -25 22 -37 0
-28 18 -46 47 -46 16 0 21 4 17 15 -4 8 -12 15 -19 15 -8 0 -17 5 -20 10 -8
13 14 42 26 34 5 -3 9 4 9 15 0 12 7 21 15 21 8 0 15 5 15 12 0 6 7 19 16 29
21 24 14 37 -13 24z"/>
<path d="M1588 1383 c-10 -2 -18 -11 -18 -19 0 -8 -12 -26 -26 -39 -16 -15
-24 -32 -22 -46 3 -20 6 -18 32 21 25 38 30 41 40 28 12 -16 28 -22 54 -19 20
2 14 17 -13 29 -27 12 -33 37 -12 45 15 7 -11 7 -35 0z"/>
<path d="M1944 1369 c-3 -6 -1 -16 5 -22 17 -17 13 -25 -11 -29 -11 -2 -22
-11 -24 -20 -3 -22 0 -22 31 -2 15 10 32 13 47 8 20 -6 21 -5 10 9 -11 13 -10
15 10 10 l23 -5 -23 16 c-12 10 -27 14 -32 11 -6 -3 -10 -1 -10 4 0 6 6 11 14
11 8 0 18 5 21 10 4 6 -6 10 -24 10 -16 0 -33 -5 -37 -11z"/>
<path d="M1404 1360 c-12 -5 -29 -19 -38 -32 -15 -21 -15 -24 -1 -35 14 -9 14
-14 3 -32 -11 -18 -10 -26 6 -55 10 -18 16 -44 14 -57 -2 -19 3 -25 29 -32 57
-17 89 -143 59 -232 -4 -11 2 -3 14 17 15 28 19 48 15 80 -5 38 4 57 26 58 8
0 37 -68 44 -106 8 -42 53 -74 103 -74 24 0 45 6 52 15 20 24 53 14 61 -16 6
-25 2 -29 -47 -54 -30 -15 -57 -32 -60 -37 -7 -11 -34 10 -34 27 0 9 -9 11
-34 5 -20 -4 -39 -3 -44 2 -12 12 -32 2 -32 -16 0 -8 18 -13 53 -15 63 -2 81
-20 72 -71 -4 -19 -12 -38 -18 -42 -8 -5 -6 -8 4 -8 18 0 30 20 35 59 5 42 11
48 60 65 65 22 86 42 71 67 -10 17 -8 23 12 38 52 40 -12 55 -88 21 -24 -11
-53 -20 -65 -20 -26 0 -86 58 -86 83 0 10 -18 49 -39 86 -37 66 -38 72 -29
116 9 42 15 49 52 66 51 24 82 47 73 56 -4 3 -15 -1 -25 -10 -20 -18 -47 -23
-37 -7 3 6 2 10 -3 10 -15 0 -60 -74 -72 -118 -9 -34 -8 -47 5 -72 9 -17 13
-35 10 -39 -9 -16 -40 -5 -44 15 -1 10 -10 27 -19 37 -8 9 -11 17 -6 17 5 1
-1 9 -12 18 -19 16 -54 72 -54 86 0 3 15 13 33 21 81 39 88 57 40 101 -28 26
-29 26 -59 14z m46 -50 c0 -33 -19 -47 -45 -33 -14 8 -14 12 5 36 28 35 40 34
40 -3z"/>
<path d="M1739 1226 c-4 -4 -39 -11 -71 -15 -4 -1 -10 -10 -13 -21 -5 -16 -12
-19 -28 -14 -20 6 -20 5 -8 -10 13 -15 13 -19 0 -27 -11 -8 -9 -9 6 -5 11 3
27 1 35 -4 12 -8 12 -10 -3 -16 -9 -3 -24 -3 -33 0 -8 3 -12 2 -9 -4 3 -5 27
-9 53 -8 34 1 41 3 27 9 -11 4 -14 8 -7 10 6 1 17 3 22 4 6 1 17 3 26 4 8 0
13 5 9 11 -3 6 -15 6 -29 0 -18 -7 -28 -5 -40 9 -19 21 -21 41 -3 42 13 1 16
1 67 -13 68 -19 87 -17 112 10 l23 25 -33 -19 c-20 -12 -36 -15 -40 -9 -4 6
-18 10 -32 10 -18 0 -25 5 -24 18 2 18 0 20 -7 13z"/>
<path d="M1753 1097 c16 -15 27 -37 27 -52 0 -14 4 -25 9 -25 6 0 6 12 1 30
-11 39 -17 48 -43 61 -18 10 -17 7 6 -14z"/>
<path d="M1332 1018 c-7 -7 -12 -17 -12 -23 0 -6 -17 -29 -37 -51 -39 -41 -45
-55 -28 -66 19 -14 25 -8 19 17 -5 20 -3 25 14 25 13 0 22 9 26 26 10 37 34
60 49 45 8 -8 5 -17 -11 -34 -12 -13 -19 -27 -15 -30 3 -4 1 -7 -5 -7 -7 0
-12 -4 -12 -10 0 -24 28 -7 49 30 21 37 21 41 5 65 -18 28 -25 30 -42 13z"/>
<path d="M1742 1008 c2 -13 11 -24 20 -26 14 -3 15 0 5 22 -15 32 -30 34 -25
4z"/>
<path d="M1506 835 c-2 -5 9 -10 25 -10 15 0 33 5 38 10 7 7 -1 10 -24 10 -19
0 -37 -4 -39 -10z"/>
<path d="M1612 841 c-21 -5 -33 -27 -14 -25 26 3 72 18 72 23 0 9 -29 10 -58
2z"/>
<path d="M1340 825 c-14 -8 -51 -14 -82 -15 -89 0 -126 -26 -99 -68 7 -11 9
-11 14 2 4 9 16 16 27 16 12 0 18 5 15 10 -3 6 -16 10 -28 10 -18 0 -19 2 -7
10 8 5 45 10 82 10 50 0 76 5 100 20 37 22 17 27 -22 5z"/>
<path d="M1488 790 c-11 -12 -13 -22 -7 -26 17 -10 39 4 39 26 0 24 -9 24 -32
0z"/>
<path d="M1083 752 c16 -7 16 -9 -3 -25 -11 -9 -20 -22 -20 -28 0 -8 7 -6 18
4 24 22 56 23 48 2 -3 -8 -1 -15 4 -15 6 0 10 13 10 29 0 21 -6 30 -22 35 -32
8 -58 7 -35 -2z"/>
<path d="M1240 751 c0 -5 11 -8 26 -8 14 0 35 -10 48 -22 12 -11 29 -21 37
-21 8 0 34 -14 59 -30 25 -16 54 -30 65 -30 26 0 61 -24 76 -52 6 -11 13 -52
15 -90 3 -69 19 -107 36 -90 5 5 4 21 -2 37 -6 16 -12 52 -13 81 -4 66 -41
119 -95 133 -20 6 -49 21 -63 35 -24 22 -44 32 -86 41 -10 2 -34 9 -53 14 -42
13 -50 14 -50 2z"/>
<path d="M1240 665 c0 -18 -11 -19 -30 -2 -8 6 -6 1 5 -11 19 -22 19 -25 2
-37 -9 -6 -17 -20 -17 -29 0 -9 -8 -32 -19 -51 -16 -30 -20 -33 -35 -22 -14
10 -15 18 -7 40 14 37 -3 34 -19 -3 -7 -16 -16 -28 -19 -25 -11 6 -11 -25 1
-79 8 -38 13 -45 20 -32 5 9 6 21 3 27 -12 18 16 39 52 39 27 0 33 3 25 13 -7
8 -6 18 4 31 8 11 14 28 14 37 0 10 6 24 14 32 19 19 32 87 17 87 -6 0 -11 -7
-11 -15z"/>
<path d="M1657 617 c-7 -18 1 -47 13 -47 6 0 7 -45 1 -126 0 -12 -12 -33 -26
-48 -21 -23 -28 -26 -41 -15 -8 6 -17 9 -21 6 -3 -4 -12 -2 -20 5 -15 12 -28
5 -19 -11 4 -5 20 -16 36 -24 26 -13 31 -13 42 0 7 8 23 19 35 24 26 10 25 9
43 90 12 53 11 60 -12 110 -18 40 -26 49 -31 36z"/>
<path d="M931 541 c-24 -15 -5 -95 35 -144 18 -23 39 -52 45 -64 13 -24 42
-38 59 -28 17 10 11 41 -12 67 -32 33 -80 126 -75 141 2 7 10 0 17 -15 7 -16
17 -28 22 -28 4 0 8 -6 8 -13 0 -8 12 -14 30 -14 17 0 30 4 30 9 0 4 -6 8 -14
8 -8 0 -16 4 -18 9 -1 5 -10 11 -18 13 -8 2 -25 16 -37 32 -14 17 -23 24 -23
15 -1 -11 -4 -10 -14 4 -15 20 -16 20 -35 8z"/>
<path d="M1513 402 c-7 -4 -11 -18 -8 -30 5 -30 -33 -71 -46 -51 -6 9 -7 1 -3
-21 8 -42 14 -51 14 -22 0 12 8 23 20 27 11 3 20 13 20 21 0 8 7 14 15 14 8 0
15 5 15 10 0 6 -5 10 -10 10 -6 0 -8 11 -4 25 7 27 5 29 -13 17z"/>
<path d="M1500 269 c-6 -11 -21 -24 -33 -29 l-22 -9 21 0 c22 -1 36 12 47 42
9 24 0 22 -13 -4z"/>
</g>
</svg>
